<svg width="72" height="72" viewBox="0 0 100 100" fill="none" xmlns="http://www.w3.org/2000/svg">
<path d="M100 50C100 77.6142 77.6142 100 50 100C22.3858 100 0 77.6142 0 50C0 22.3858 22.3858 0 50 0C77.6142 0 100 22.3858 100 50Z" fill="#D9D9D9"/>
<path d="M71.8067 36.225C72.0211 36.2773 72.2438 36.2864 72.4618 36.252C72.6798 36.2175 72.8888 36.14 73.0766 36.0241C73.2645 35.9082 73.4274 35.7562 73.556 35.5768C73.6846 35.3974 73.7763 35.1942 73.8257 34.9791C73.8752 34.764 73.8814 34.5412 73.844 34.3237C73.8067 34.1062 73.7265 33.8982 73.6081 33.7119C73.4897 33.5256 73.3355 33.3647 73.1545 33.2385C72.9734 33.1123 72.7691 33.0233 72.5533 32.9767L61.5267 30.4433C61.3106 30.3859 61.0851 30.3725 60.8637 30.4039C60.6423 30.4354 60.4295 30.5111 60.238 30.6266C60.0464 30.742 59.8801 30.8948 59.7489 31.0758C59.6176 31.2569 59.5241 31.4625 59.474 31.6805C59.4239 31.8984 59.4182 32.1242 59.4571 32.3444C59.4961 32.5646 59.579 32.7747 59.7008 32.9622C59.8227 33.1497 59.981 33.3108 60.1664 33.4358C60.3518 33.5608 60.5605 33.6473 60.78 33.69L71.8067 36.225Z" fill="white"/>
<path fill-rule="evenodd" clip-rule="evenodd" d="M66.6667 46.6667C70.2029 46.6667 73.5943 45.2619 76.0948 42.7614C78.5952 40.2609 80 36.8696 80 33.3333C80 29.7971 78.5952 26.4057 76.0948 23.9052C73.5943 21.4048 70.2029 20 66.6667 20C63.1304 20 59.7391 21.4048 57.2386 23.9052C54.7381 26.4057 53.3333 29.7971 53.3333 33.3333C53.3333 36.8696 54.7381 40.2609 57.2386 42.7614C59.7391 45.2619 63.1304 46.6667 66.6667 46.6667ZM66.6667 43.3333C67.9799 43.3333 69.2802 43.0747 70.4935 42.5721C71.7068 42.0696 72.8092 41.333 73.7377 40.4044C74.6663 39.4758 75.4029 38.3734 75.9055 37.1602C76.408 35.9469 76.6667 34.6466 76.6667 33.3333C76.6667 32.0201 76.408 30.7198 75.9055 29.5065C75.4029 28.2932 74.6663 27.1909 73.7377 26.2623C72.8092 25.3337 71.7068 24.5971 70.4935 24.0945C69.2802 23.592 67.9799 23.3333 66.6667 23.3333C64.0145 23.3333 61.471 24.3869 59.5956 26.2623C57.7202 28.1376 56.6667 30.6812 56.6667 33.3333C56.6667 35.9855 57.7202 38.529 59.5956 40.4044C61.471 42.2798 64.0145 43.3333 66.6667 43.3333ZM37.9633 25.4083C36.885 22.855 33.275 22.5983 31.8267 24.97L20.4867 43.525C19.1783 45.665 20.64 48.3983 23.1917 48.58L42.9683 49.99C45.5183 50.1733 47.375 47.6767 46.4017 45.3733L37.9633 25.4083ZM34.685 26.6883C34.6795 26.6946 34.6745 26.7013 34.67 26.7083L23.35 45.2333L23.3533 45.2367C23.3586 45.2396 23.3642 45.2418 23.37 45.2433C23.3894 45.2499 23.4096 45.2538 23.43 45.255L43.2083 46.665C43.2417 46.6683 43.2617 46.665 43.2717 46.665C43.2899 46.6617 43.3067 46.6529 43.32 46.64L34.8933 26.7067L34.8867 26.69C34.8587 26.6758 34.828 26.6678 34.7967 26.6667C34.7615 26.6633 34.7261 26.6684 34.6933 26.6817L34.6883 26.6833V26.685L34.685 26.6883ZM68.975 70.6C71.379 69.4792 73.2393 67.4494 74.1466 64.9571C75.054 62.4647 74.9341 59.714 73.8133 57.31C73.2584 56.1197 72.4744 55.0503 71.5062 54.163C70.538 53.2756 69.4045 52.5877 68.1704 52.1384C65.678 51.231 62.9273 51.3509 60.5233 52.4717L42.3967 60.925C41.2065 61.4799 40.1372 62.2639 39.25 63.2321C38.3627 64.2002 37.6748 65.3337 37.2256 66.5677C36.7764 67.8017 36.5747 69.1121 36.6319 70.4241C36.6891 71.7361 37.0042 73.024 37.5592 74.2142C38.1141 75.4044 38.898 76.4736 39.8662 77.3609C40.8344 78.2481 41.9679 78.936 43.2019 79.3852C44.4359 79.8344 45.7463 80.0361 47.0583 79.9789C48.3703 79.9217 49.6581 79.6066 50.8483 79.0517L68.975 70.5983V70.6ZM43.805 63.9467C43.0028 64.3111 42.2809 64.8309 41.6808 65.476C41.0808 66.1212 40.6145 66.8789 40.3091 67.7053C40.0037 68.5317 39.8651 69.4105 39.9014 70.2908C39.9376 71.1711 40.148 72.0355 40.5204 72.834C40.8928 73.6325 41.4197 74.3493 42.0708 74.9429C42.7219 75.5365 43.4842 75.9951 44.3136 76.2923C45.1431 76.5895 46.0232 76.7194 46.9031 76.6743C47.783 76.6293 48.6452 76.4103 49.44 76.03L56.8833 72.5583L51.25 60.475L43.805 63.945V63.9467ZM59.905 71.15L54.27 59.0667L61.9317 55.4933C62.727 55.1086 63.5909 54.8858 64.4731 54.8379C65.3553 54.7899 66.2382 54.9178 67.0706 55.2141C67.9029 55.5104 68.668 55.9692 69.3215 56.5638C69.975 57.1584 70.5037 57.877 70.8771 58.6777C71.2504 59.4785 71.4608 60.3455 71.4961 61.2283C71.5314 62.1111 71.3909 62.9921 71.0827 63.8201C70.7746 64.6481 70.3049 65.4066 69.701 66.0515C69.0971 66.6964 68.371 67.2148 67.565 67.5767L59.905 71.15Z" fill="white"/>
</svg>
