<svg width="48" height="48" viewBox="0 0 48 48" fill="none" xmlns="http://www.w3.org/2000/svg">
<path d="M3.37498 1.65C0.749984 3.3 0.824984 20.775 3.97498 26.4L23.55 14.4C20.55 9.075 5.84998 0.15 3.37498 1.65" fill="#4C5359"/>
<path d="M7.12477 8.475C5.99977 9.15 5.47477 20.625 7.42477 24.225L19.9498 16.575C18.1498 13.125 8.17477 7.875 7.12477 8.475" fill="#F7A4A4"/>
<path d="M44.6249 1.65C47.2499 3.3 47.1749 20.775 44.0999 26.4L24.5249 14.4C27.4499 9.075 42.1499 0.15 44.6249 1.65" fill="#4C5359"/>
<path d="M40.8751 8.475C42.0001 9.15 42.5251 20.625 40.5751 24.225L27.9751 16.575C29.8501 13.125 39.8251 7.875 40.8751 8.475Z" fill="#F7A4A4"/>
<path d="M23.8499 9.825C3.5249 9.825 1.6499 24.375 1.6499 32.625C1.6499 36 11.5499 46.5 23.8499 46.5C36.1499 46.5 46.0499 36 46.0499 32.625C46.0499 24.375 44.1749 9.825 23.8499 9.825" fill="#4C5359"/>
<path d="M18.1498 29.025C18.1498 29.025 15.8248 32.625 11.5498 31.5C7.2748 30.375 7.0498 26.1 7.0498 26.1C7.0498 26.1 9.37481 22.5 13.6498 23.625C17.9998 24.75 18.1498 29.025 18.1498 29.025" fill="#BFFFAB"/>
<path d="M17.7002 27.15C17.7002 27.15 15.6752 29.4 12.8252 29.4C9.7502 29.4 7.9502 24.975 7.9502 24.975C7.9502 24.975 9.9752 22.65 13.6502 23.55C17.0252 24.45 17.7002 27.15 17.7002 27.15Z" fill="#93E67F"/>
<path d="M14.5499 27.075C14.5499 32.025 12.1499 32.025 12.1499 27.075C12.2249 22.125 14.5499 22.125 14.5499 27.075Z" fill="#4C5359"/>
<path d="M29.5498 29.025C29.5498 29.025 31.8748 32.625 36.1498 31.5C40.4248 30.375 40.6498 26.1 40.6498 26.1C40.6498 26.1 38.3248 22.5 34.0498 23.625C29.6998 24.75 29.5498 29.025 29.5498 29.025" fill="#BFFFAB"/>
<path d="M29.9248 27.15C29.9248 27.15 31.9498 29.4 34.7998 29.4C37.8748 29.4 39.6748 24.975 39.6748 24.975C39.6748 24.975 37.6498 22.65 33.9748 23.55C30.5998 24.45 29.9248 27.15 29.9248 27.15Z" fill="#93E67F"/>
<path d="M33.0752 27.075C33.0752 32.025 35.4752 32.025 35.4752 27.075C35.4752 22.125 33.0752 22.125 33.0752 27.075Z" fill="#4C5359"/>
<path d="M30.3002 33C28.3502 31.5 26.2502 26.475 23.8502 26.475C21.4502 26.475 19.2752 31.5 17.3252 33C14.2502 35.4 6.0752 38.1 6.0752 38.1C6.0752 38.1 14.7752 45.75 23.7752 45.75C32.7752 45.75 41.4752 38.1 41.4752 38.1C41.5502 38.1 33.3752 35.4 30.3002 33Z" fill="white"/>
<path d="M23.8502 42.75C24.5544 42.75 25.1252 41.9105 25.1252 40.875C25.1252 39.8395 24.5544 39 23.8502 39C23.146 39 22.5752 39.8395 22.5752 40.875C22.5752 41.9105 23.146 42.75 23.8502 42.75Z" fill="#FF94A4"/>
<path d="M30.1499 39.825C29.3999 40.275 28.5749 40.425 27.8249 40.425C26.9999 40.35 26.2499 40.125 25.6499 39.6C25.0499 39.15 24.5999 38.475 24.4499 37.65L23.8499 34.275L23.2499 37.65C23.0999 38.4 22.6499 39.075 22.0499 39.6C21.4499 40.125 20.6249 40.35 19.8749 40.425C19.0499 40.425 18.2249 40.275 17.5499 39.825C16.7999 39.375 16.1999 38.7 15.8999 37.8C15.9749 38.775 16.4249 39.675 17.1749 40.35C17.9249 41.025 18.8999 41.4 19.7999 41.4C20.8499 41.475 21.8249 41.175 22.6499 40.575C23.0999 40.275 23.4749 39.825 23.7749 39.375C24.0749 39.825 24.4499 40.275 24.8999 40.575C25.7249 41.175 26.7749 41.475 27.7499 41.4C28.7249 41.325 29.6999 40.95 30.4499 40.35C31.1999 39.675 31.7249 38.775 31.7249 37.8C31.4999 38.625 30.8999 39.375 30.1499 39.825Z" fill="#4C5359"/>
<path d="M26.8497 33.6C26.2497 32.85 24.3747 32.775 23.8497 32.775C23.3247 32.775 21.4497 32.85 20.8497 33.6C20.3997 34.125 20.7747 35.475 21.8997 36.6C22.6497 37.35 23.3247 37.575 23.8497 37.575C24.3747 37.575 25.1247 37.35 25.7997 36.6C26.9247 35.4 27.2997 34.125 26.8497 33.6Z" fill="#4C5359"/>
</svg>
