<svg width="48" height="48" viewBox="0 0 48 48" fill="none" xmlns="http://www.w3.org/2000/svg">
<path d="M45.6748 1.5C47.0248 11.55 46.7998 19.65 44.7748 24.825L26.1748 11.025C29.8498 7.2 37.3498 2.625 45.6748 1.5Z" fill="#DADEE0"/>
<path d="M43.275 24.15L35.625 14.175C35.625 14.175 37.05 8.7 44.325 4.875C46.5 13.575 43.275 24.15 43.275 24.15" fill="#F7A4A4"/>
<path d="M40.35 21.9L35.625 15.75C35.625 15.75 37.575 12 42.075 9.6C39.45 15.225 40.35 21.9 40.35 21.9" fill="#F78D8D"/>
<path d="M2.32503 1.5C0.975034 11.55 1.20003 19.65 3.22503 24.825L21.825 10.95C18.15 7.2 10.65 2.625 2.32503 1.5Z" fill="#DADEE0"/>
<path d="M4.72524 24.15L12.4502 14.175C12.4502 14.175 11.0252 8.7 3.75024 4.875C1.50024 13.575 4.72524 24.15 4.72524 24.15Z" fill="#F7A4A4"/>
<path d="M7.65 21.9L12.45 15.75C12.45 15.75 10.5 12 6 9.6C8.55 15.225 7.65 21.9 7.65 21.9Z" fill="#F78D8D"/>
<path d="M43.65 38.1C44.25 37.425 44.7 36.9 44.925 36.45C46.125 34.5 46.5 32.475 46.5 32.475L45 32.775C45 32.775 46.725 30.9 46.275 26.925L44.775 28.5C44.775 28.5 46.2 24.45 45 20.7L43.35 21.9C43.35 21.9 43.875 20.4 43.425 19.35L42.75 19.875C42.75 19.875 44.025 16.35 42.9 14.925C42.225 17.025 41.475 17.025 41.475 17.025C41.475 17.025 42.375 15.45 41.7 14.775C40.95 15.975 40.35 15.225 40.35 14.85C40.425 14.4 40.2 13.725 42.375 13.35C40.65 12.3 38.55 13.05 38.55 13.05C38.55 13.05 38.625 11.925 40.125 12C38.7 10.8 36.75 11.55 36.75 11.55C33.675 9.225 29.55 7.875 23.925 7.875C18.375 7.875 14.25 9.225 11.1 11.55C11.1 11.55 9.15 10.875 7.725 12C9.225 11.925 9.3 13.05 9.3 13.05C9.3 13.05 7.275 12.3 5.475 13.35C7.65 13.65 7.5 14.325 7.5 14.85C7.5 15.225 6.9 15.975 6.15 14.775C5.4 15.45 6.375 17.025 6.375 17.025C6.375 17.025 5.625 17.025 4.95 14.925C3.825 16.425 5.1 19.875 5.1 19.875L4.425 19.35C3.975 20.4 4.5 21.9 4.5 21.9L3 20.7C1.725 24.45 3.225 28.5 3.225 28.5L1.8 26.925C1.275 30.9 3 32.775 3 32.775L1.5 32.475C1.5 32.475 1.875 34.5 3.075 36.45C3.225 36.825 3.675 37.425 4.35 38.1L4.425 38.175C7.5 41.25 15.075 46.5 24 46.5C32.925 46.5 40.5 41.25 43.575 38.175C43.575 38.1 43.65 38.1 43.65 38.1Z" fill="#DADEE0"/>
<path d="M28.2749 8.1C26.9249 7.875 25.4999 7.8 23.9999 7.8C22.4999 7.8 21.0749 7.875 19.7249 8.1C20.2499 11.025 21.8249 13.05 23.9999 16.8C26.2499 12.975 27.7499 10.95 28.2749 8.1M35.0999 10.35C33.6749 9.525 32.0249 8.925 30.2249 8.475C30.6749 10.2 31.6499 11.4 32.9249 13.65C33.8999 12.075 34.5749 11.625 35.0999 10.35ZM17.7749 8.475C15.8999 8.925 14.3249 9.525 12.8999 10.35C13.4249 11.7 14.1749 12.075 15.0749 13.65C16.4249 11.325 17.3249 10.125 17.7749 8.475Z" fill="#94989B"/>
<path d="M27.0001 29.1C26.4001 28.425 24.5251 28.35 24.0001 28.35C23.4751 28.35 21.6001 28.425 21.0001 29.1C20.5501 29.625 20.9251 30.825 22.0501 31.95C22.8001 32.625 23.4751 32.85 24.0001 32.85C24.5251 32.85 25.2751 32.625 25.9501 31.95C27.1501 30.825 27.4501 29.55 27.0001 29.1Z" fill="#4C5359"/>
<path d="M18.2251 23.1C18.2251 23.1 17.8501 20.4 14.8501 19.35C11.4751 18.075 9.15008 20.4 8.47508 22.125C7.57508 24.675 8.70008 27.45 9.07508 28.125C9.30008 28.575 11.8501 30.525 17.4751 28.65C17.4751 28.65 18.9001 25.8 18.2251 23.1" fill="white"/>
<path d="M18.225 23.1C18.225 23.1 13.8 19.5 13.5 19.5C12.375 19.5 11.4 19.2 10.575 19.95C9.74996 20.7 9.14996 21.675 8.84996 22.725C8.54996 23.775 8.62496 24.975 8.84996 26.025C8.99996 26.55 9.14996 27.15 9.37496 27.675L9.44996 27.825C9.44996 27.75 9.44996 27.825 9.44996 27.825L9.52496 27.9C9.59996 27.975 9.67496 28.05 9.82496 28.125C10.05 28.275 10.275 28.425 10.5 28.5C11.55 28.95 12.675 29.1 13.875 29.1C15.075 29.1 16.275 28.875 17.475 28.575C16.35 29.1 15.15 29.4 13.95 29.625C12.75 29.775 11.4 29.775 10.2 29.325C9.89996 29.25 9.59996 29.1 9.29996 28.875C9.14996 28.8 8.99996 28.65 8.84996 28.575C8.77496 28.575 8.77496 28.5 8.69996 28.425L8.62496 28.35L8.54996 28.275L8.39996 28.05C8.09996 27.45 7.87496 26.85 7.72496 26.25C7.42496 25.05 7.34996 23.7 7.64996 22.425C8.02496 21.15 8.77496 20.025 9.74996 19.125C10.725 18.3 12.075 18.45 13.425 18.6C13.875 18.675 18.225 23.1 18.225 23.1" fill="#B2B6B8"/>
<path d="M29.7748 23.1C29.7748 23.1 30.1498 20.4 33.1498 19.35C36.5248 18.075 38.8498 20.4 39.5248 22.125C40.4248 24.675 39.2998 27.45 38.9248 28.125C38.6998 28.575 36.1498 30.525 30.5248 28.65C30.5248 28.65 29.0998 25.8 29.7748 23.1" fill="white"/>
<path d="M29.7749 23.1C29.7749 23.1 34.1249 18.675 34.4249 18.6C35.7749 18.45 37.1249 18.3 38.0999 19.125C39.0749 20.025 39.8249 21.075 40.1999 22.425C40.4999 23.7 40.4249 25.05 40.1249 26.325C39.9749 26.925 39.7499 27.525 39.4499 28.125L39.2999 28.35L39.2249 28.425V28.5L39.0749 28.65C38.9249 28.8 38.7749 28.875 38.6249 28.95L37.7249 29.4C36.4499 29.85 35.1749 29.85 33.9749 29.7C32.7749 29.475 31.5749 29.175 30.4499 28.65C31.6499 28.875 32.8499 29.1 34.0499 29.175C35.2499 29.175 36.4499 29.025 37.4249 28.575C37.6499 28.5 37.9499 28.35 38.0999 28.2C38.1749 28.125 38.3249 28.05 38.3999 27.975L38.4749 27.9L38.5499 27.75C38.7749 27.225 38.9249 26.7 39.0749 26.1C39.2999 24.975 39.3749 23.85 39.0749 22.8C38.7749 21.75 38.1749 20.775 37.3499 20.025C36.5249 19.275 35.5499 19.575 34.4249 19.575C34.1999 19.5 29.7749 23.1 29.7749 23.1" fill="#B2B6B8"/>
<path d="M33 27.75C34.6569 27.75 36 26.239 36 24.375C36 22.511 34.6569 21 33 21C31.3431 21 30 22.511 30 24.375C30 26.239 31.3431 27.75 33 27.75Z" fill="#4C5359"/>
<path d="M15 27.75C16.6569 27.75 18 26.239 18 24.375C18 22.511 16.6569 21 15 21C13.3431 21 12 22.511 12 24.375C12 26.239 13.3431 27.75 15 27.75Z" fill="#4C5359"/>
<path d="M41.9252 18.375C40.5002 18.525 39.3002 18.75 38.0252 19.05C36.8252 19.35 35.7002 19.8 34.5752 20.325C33.4502 20.85 32.4002 21.45 31.4252 22.125C30.3752 22.875 29.4752 23.7 28.4252 24.675C28.5752 23.25 29.2502 21.9 30.2252 20.85C31.1252 19.725 32.4002 18.9 33.6752 18.3C35.0252 17.7 36.4502 17.325 37.8752 17.325C39.3002 17.325 40.7252 17.625 41.9252 18.375M6.0752 18.375C7.2752 17.625 8.7002 17.25 10.1252 17.325C11.5502 17.325 12.9752 17.7 14.3252 18.3C15.6002 18.9 16.8002 19.8 17.7752 20.85C18.6752 21.975 19.4252 23.25 19.5752 24.675C18.6002 23.7 17.6252 22.875 16.5752 22.125C15.5252 21.375 14.4752 20.775 13.4252 20.325C12.3002 19.8 11.1752 19.425 9.9752 19.05C8.7002 18.75 7.5002 18.525 6.0752 18.375M19.3502 40.125C23.7002 41.175 30.6752 40.125 34.2002 37.5C35.1002 36.825 33.3002 34.5 32.4752 35.175C30.0752 36.9 24.0752 38.25 20.0252 37.35C18.9752 37.05 18.2252 39.825 19.3502 40.125" fill="#4C5359"/>
</svg>
