<svg width="48" height="48" viewBox="0 0 48 48" fill="none" xmlns="http://www.w3.org/2000/svg">
<path d="M46.5 20.4C46.5 18.15 45.375 16.2 43.575 15.075C43.8 14.4 43.95 13.65 43.95 12.9C43.95 9.375 41.175 6.45 37.725 6.375C36.75 4.5 34.8 3.15 32.55 3.15C31.425 3.15 30.375 3.45 29.475 4.05C28.35 2.55 26.325 1.5 24 1.5C21.675 1.5 19.65 2.55 18.45 4.05C17.55 3.45 16.5 3.15 15.375 3.15C13.125 3.15 11.175 4.425 10.2 6.375C6.75 6.45 3.975 9.3 3.975 12.9C3.975 13.65 4.125 14.4 4.35 15.075C2.625 16.2 1.5 18.15 1.5 20.4C1.5 21.9 2.025 23.325 2.925 24.45C2.55 25.2 2.325 26.025 2.325 26.925C2.325 28.95 3.45 30.75 5.1 31.65C5.1 31.875 5.025 32.025 5.025 32.25C5.025 35.175 7.35 37.575 10.2 37.575H37.725C40.575 37.575 42.9 35.175 42.9 32.25V31.65C44.55 30.75 45.675 28.95 45.675 26.925C45.675 26.025 45.45 25.2 45.075 24.45C45.975 23.325 46.5 21.975 46.5 20.4" fill="#42ADE2"/>
<path d="M38.8498 26.25C38.7748 26.925 38.6248 27.6 38.3998 27.975C38.0248 28.65 37.3498 29.025 37.3498 29.025C37.3498 29.025 37.5748 28.35 37.4998 26.475C36.5248 11.55 34.7248 18.225 24.0748 18.225C13.4248 18.225 11.6248 11.55 10.6498 26.475C10.5748 28.35 10.7998 29.025 10.7998 29.025C10.7998 29.025 10.1248 28.65 9.7498 27.975C9.5248 27.6 9.4498 27 9.2998 26.25C8.1748 25.95 6.6748 26.175 6.6748 29.475C6.6748 31.5 7.42481 33.225 9.97481 33.375C11.0248 41.625 14.2498 42.975 20.6998 45.9C22.4248 46.65 25.8748 46.65 27.5248 45.9C33.9748 42.975 37.1998 41.625 38.2498 33.375C40.7998 33.225 41.5498 31.5 41.5498 29.475C41.3998 26.175 39.9748 25.95 38.8498 26.25Z" fill="#FED0AC"/>
<path d="M36.8248 26.625C35.8498 12.225 34.1998 19.2 23.9998 19.2C13.7998 19.2 12.1498 12.225 11.1748 26.625C11.0998 28.425 11.4748 31.65 11.6998 33.3C12.2998 37.2 14.6248 42.45 20.6998 45.3C22.3498 46.05 25.6498 46.05 27.2248 45.3C33.3748 42.525 35.6998 37.2 36.2248 33.3C36.5248 31.575 36.8998 28.35 36.8248 26.625" fill="#F5F5F5"/>
<path d="M30.9001 36.975C28.0501 39.9 28.4251 43.575 24.0001 43.575C19.5751 43.575 19.9501 39.9 17.1001 36.975C14.3251 34.05 20.9251 37.35 24.0001 37.35C27.0751 37.35 33.6751 34.05 30.9001 36.975Z" fill="#574137"/>
<path d="M29.175 36.15L24 37.35L18.825 36.15C18.825 36.15 18.675 37.35 19.2 37.875C19.95 38.625 22.8 39 24.075 39C25.35 39 28.125 38.625 28.95 37.875C29.325 37.425 29.175 36.15 29.175 36.15" fill="white"/>
<path d="M24.0001 41.325C21.9001 41.325 21.2251 42.825 21.2251 42.825L24.0001 43.275L26.7751 42.825C26.7751 42.825 26.1001 41.325 24.0001 41.325Z" fill="#FF717F"/>
<path d="M23.9998 36.75C22.2748 36.75 12.1498 33 16.5748 37.2C18.9748 39.45 18.9748 44.7 23.9998 44.7C29.0248 44.7 29.0248 39.525 31.4248 37.2C35.8498 33 25.7248 36.75 23.9998 36.75ZM29.9248 37.575C27.4498 40.05 27.8248 43.05 23.9998 43.125C20.1748 43.125 20.5498 40.05 18.0748 37.575C15.6748 35.175 21.3748 37.875 23.9998 37.875C26.6248 37.875 32.3248 35.1 29.9248 37.575Z" fill="#CF4350"/>
<path d="M23.9998 37.5C26.7336 37.5 28.9498 35.2838 28.9498 32.55C28.9498 29.8162 26.7336 27.6 23.9998 27.6C21.266 27.6 19.0498 29.8162 19.0498 32.55C19.0498 35.2838 21.266 37.5 23.9998 37.5Z" fill="#FF5263"/>
<path d="M20.25 26.85C20.25 29.025 14.25 29.025 14.25 26.85C14.25 19.425 20.25 19.425 20.25 26.85Z" fill="#F5F5F5"/>
<path d="M20.7749 27.15C20.7749 29.925 13.2749 29.925 13.2749 27.15C13.2749 17.925 20.7749 17.925 20.7749 27.15Z" fill="#3E4347"/>
<path d="M20.5498 27.225C20.5498 29.4 14.5498 29.4 14.5498 27.225C14.5498 19.8 20.5498 19.8 20.5498 27.225Z" fill="#F5F5F5"/>
<path d="M17.7749 28.5C18.8104 28.5 19.6499 27.3247 19.6499 25.875C19.6499 24.4253 18.8104 23.25 17.7749 23.25C16.7394 23.25 15.8999 24.4253 15.8999 25.875C15.8999 27.3247 16.7394 28.5 17.7749 28.5Z" fill="#0A84A5"/>
<path d="M17.7748 26.475C18.1062 26.475 18.3748 26.2064 18.3748 25.875C18.3748 25.5436 18.1062 25.275 17.7748 25.275C17.4434 25.275 17.1748 25.5436 17.1748 25.875C17.1748 26.2064 17.4434 26.475 17.7748 26.475Z" fill="#231F20"/>
<path d="M27.2251 27.15C27.2251 29.925 34.7251 29.925 34.7251 27.15C34.7251 17.925 27.2251 17.925 27.2251 27.15Z" fill="#3E4347"/>
<path d="M27.4502 27.225C27.4502 29.4 33.4502 29.4 33.4502 27.225C33.4502 19.8 27.4502 19.8 27.4502 27.225Z" fill="#F5F5F5"/>
<path d="M30.2251 28.5C31.2606 28.5 32.1001 27.3247 32.1001 25.875C32.1001 24.4253 31.2606 23.25 30.2251 23.25C29.1896 23.25 28.3501 24.4253 28.3501 25.875C28.3501 27.3247 29.1896 28.5 30.2251 28.5Z" fill="#0A84A5"/>
<path d="M30.225 26.475C30.5564 26.475 30.825 26.2064 30.825 25.875C30.825 25.5436 30.5564 25.275 30.225 25.275C29.8936 25.275 29.625 25.5436 29.625 25.875C29.625 26.2064 29.8936 26.475 30.225 26.475Z" fill="#231F20"/>
</svg>
