<svg width="48" height="48" viewBox="0 0 48 48" fill="none" xmlns="http://www.w3.org/2000/svg">
<path d="M16.05 5.925C13.35 4.5 11.55 1.5 11.55 1.5C10.8 9.375 13.65 11.325 15.3 11.325C17.475 11.4 19.2 7.65 16.05 5.925M31.875 5.925C34.575 4.5 36.375 1.5 36.375 1.5C37.125 9.375 34.275 11.325 32.625 11.325C30.45 11.4 28.725 7.65 31.875 5.925" fill="#F6C799"/>
<path d="M46.5001 6.975C42.2251 6.825 38.7751 7.5 36.6751 9C35.4001 11.25 34.7251 15.075 34.8001 19.8C39.0751 19.95 42.8251 19.725 44.6251 17.775C46.3501 15.9 46.5751 11.7 46.5001 6.975" fill="#6F6F6D"/>
<path d="M45.3748 9.825C42.3748 9.75 39.9748 10.2 38.4748 11.25C37.5748 12.825 37.0498 15.525 37.1248 18.825C40.1248 18.9 42.7498 18.75 44.0248 17.4C45.2998 16.05 45.4498 13.125 45.3748 9.825" fill="#F4A19A"/>
<path d="M1.50011 6.975C5.77511 6.825 9.22511 7.5 11.3251 9C12.6001 11.25 13.2751 15.075 13.2001 19.8C9.00011 19.95 5.17511 19.725 3.37511 17.775C1.65011 15.9 1.42511 11.7 1.50011 6.975Z" fill="#6F6F6D"/>
<path d="M2.62524 9.825C5.62524 9.75 8.02524 10.2 9.52524 11.25C10.4252 12.825 10.8752 15.525 10.8752 18.825C7.87524 18.9 5.25024 18.75 3.97524 17.4C2.70024 16.05 2.55024 13.125 2.62524 9.825" fill="#F4A19A"/>
<path d="M39.75 28.725C39.75 39.3 24 45.225 24 45.225C24 45.225 8.25 39.3 8.25 28.725C8.25 13.125 14.4 5.025 24 5.025C33.6 5.025 39.75 10.8 39.75 28.725Z" fill="#DAE5EF"/>
<path d="M34.05 8.475C28.8 14.175 25.125 21.45 30.45 28.125C33.975 32.55 36.75 32.55 39.3 31.8C39.6 30.825 39.75 29.775 39.75 28.65C39.75 18.225 38.175 12 34.05 8.475M17.625 28.2C22.8 21.675 19.425 14.475 14.325 8.85C9.825 12.6 8.25 19.35 8.25 28.725C8.25 29.85 8.4 30.9 8.7 31.875C11.325 32.625 14.1 32.625 17.625 28.2Z" fill="#6F6F6D"/>
<path d="M29.5498 23.4C29.5498 23.4 31.3498 26.4 34.6498 25.425C37.9498 24.45 38.0998 20.925 38.0998 20.925C38.0998 20.925 36.2998 17.925 32.9998 18.9C29.6998 19.875 29.5498 23.4 29.5498 23.4Z" fill="white"/>
<path d="M33.8246 25.125C35.1915 25.125 36.2996 23.8154 36.2996 22.2C36.2996 20.5846 35.1915 19.275 33.8246 19.275C32.4577 19.275 31.3496 20.5846 31.3496 22.2C31.3496 23.8154 32.4577 25.125 33.8246 25.125Z" fill="#3E4347"/>
<path d="M29.5498 23.4C29.5498 23.4 32.3998 18.975 36.8248 20.775C39.5998 21.9 40.6498 20.1 40.6498 20.1C39.1498 20.325 38.4748 19.725 36.8248 18.9C33.8248 17.4 29.5498 18.15 29.5498 23.4" fill="#3E4347"/>
<path d="M18.4499 23.4C18.4499 23.4 16.6499 26.4 13.3499 25.425C10.0499 24.45 9.8999 20.925 9.8999 20.925C9.8999 20.925 11.6999 17.925 14.9999 18.9C18.2999 19.875 18.4499 23.4 18.4499 23.4Z" fill="white"/>
<path d="M14.1752 25.125C15.5421 25.125 16.6502 23.8154 16.6502 22.2C16.6502 20.5846 15.5421 19.275 14.1752 19.275C12.8083 19.275 11.7002 20.5846 11.7002 22.2C11.7002 23.8154 12.8083 25.125 14.1752 25.125Z" fill="#3E4347"/>
<path d="M18.4501 23.4C18.4501 23.4 15.6001 18.975 11.1751 20.775C8.4001 21.9 7.3501 20.1 7.3501 20.1C8.8501 20.325 9.5251 19.725 11.1751 18.9C14.1751 17.4 18.4501 18.15 18.4501 23.4Z" fill="#3E4347"/>
<path d="M11.1001 36.15C11.1001 30.075 14.1001 33.15 24.0001 33.15C33.9001 33.15 36.9001 30.075 36.9001 36.15C36.9001 44.85 30.8251 46.5 24.0001 46.5C17.1751 46.5 11.1001 44.85 11.1001 36.15Z" fill="#F4A19A"/>
<path d="M19.8001 37.575C18.9001 35.025 17.2501 33.6 16.0501 34.425C14.8501 35.175 14.6251 37.875 15.5251 40.425C16.4251 42.975 18.0751 44.4 19.2751 43.575C20.4751 42.75 20.7001 40.125 19.8001 37.575ZM31.9501 34.425C30.7501 33.675 29.1001 35.025 28.2001 37.575C27.3001 40.125 27.5251 42.825 28.7251 43.575C29.9251 44.325 31.5751 42.975 32.4751 40.425C33.3751 37.875 33.1501 35.175 31.9501 34.425Z" fill="#BC6464"/>
</svg>
